<svg xmlns="http://www.w3.org/2000/svg" xmlns:xlink="http://www.w3.org/1999/xlink" width="167.128" height="61.133" viewBox="0 0 167.128 61.133">
  <defs>
    <radialGradient id="radial-gradient" cx="0.34" cy="0.221" r="0.702" gradientTransform="matrix(1.003, 0.001, -0.001, 1.003, -0.184, -0.033)" gradientUnits="objectBoundingBox">
      <stop offset="0" stop-color="#5085bc"/>
      <stop offset="1" stop-color="#0b0a54"/>
    </radialGradient>
    <linearGradient id="linear-gradient" x1="10.499" y1="-14.401" x2="11.137" y2="-15.081" gradientTransform="matrix(1, 0, 0, 1, 0, 0)" xlink:href="#radial-gradient"/>
    <linearGradient id="linear-gradient-2" x1="49.103" y1="31.478" x2="50.543" y2="31.184" gradientTransform="matrix(1, 0, 0, 1, 0, 0)" xlink:href="#radial-gradient"/>
    <linearGradient id="linear-gradient-3" x1="-28.177" y1="23.896" x2="-27.157" y2="23.559" gradientTransform="matrix(1, 0, 0, 1, 0, 0)" xlink:href="#radial-gradient"/>
    <linearGradient id="linear-gradient-4" x1="0.295" y1="0.697" x2="0.697" y2="0.018" gradientTransform="matrix(1, 0, 0, 1, 0, 0)" xlink:href="#radial-gradient"/>
    <linearGradient id="linear-gradient-5" x1="0.851" y1="0.44" x2="0.09" y2="0.544" gradientTransform="matrix(1, 0, 0, 1, 0, 0)" xlink:href="#radial-gradient"/>
    <linearGradient id="linear-gradient-6" x1="0.459" y1="0.186" x2="0.647" y2="0.905" gradientTransform="matrix(1, 0, 0, 1, 0, 0)" xlink:href="#radial-gradient"/>
  </defs>
  <g id="Сгруппировать_1594" data-name="Сгруппировать 1594" transform="translate(-12.825 -99.001)">
    <g id="Сгруппировать_1590" data-name="Сгруппировать 1590" transform="translate(-437.834 -44.787)">
      <g id="Сгруппировать_35" data-name="Сгруппировать 35" transform="translate(450.659 143.788)">
        <g id="Сгруппировать_1" data-name="Сгруппировать 1">
          <path id="Контур_1" data-name="Контур 1" d="M485.358,213.025a4.886,4.886,0,1,1-.345-6.91A4.867,4.867,0,0,1,485.358,213.025Z" transform="translate(-458.249 -186.406)" fill="url(#radial-gradient)"/>
          <path id="Контур_2" data-name="Контур 2" d="M479.3,185.485c.411.4.788.814,1.13,1.224a19.219,19.219,0,0,1,2.881,4.663,15.056,15.056,0,0,0,3.514.243c.071,0,.136,0,.208-.009s.125-.013.19-.018a13.392,13.392,0,0,0,8.42-4.018c.1-.1.2-.2.295-.307-.443-.529-.9-1.052-1.4-1.551a23.374,23.374,0,0,0-30.487-2.185C471.235,180.046,476.21,182.446,479.3,185.485Z" transform="translate(-454.539 -178.885)" fill="url(#linear-gradient)"/>
          <path id="Контур_3" data-name="Контур 3" d="M458.878,215.346c.143-.556.312-1.088.5-1.591a19.223,19.223,0,0,1,2.6-4.826,15.036,15.036,0,0,0-1.547-3.163c-.038-.06-.07-.116-.112-.177s-.074-.1-.111-.156a13.4,13.4,0,0,0-7.69-5.282c-.136-.036-.275-.068-.414-.1-.237.649-.461,1.306-.646,1.985a23.376,23.376,0,0,0,13.351,27.5C458.2,225.051,457.792,219.542,458.878,215.346Z" transform="translate(-450.659 -185.015)" fill="url(#linear-gradient-2)"/>
          <path id="Контур_4" data-name="Контур 4" d="M498.608,220.1c-.554.154-1.1.274-1.624.367a19.264,19.264,0,0,1-5.479.164,15.1,15.1,0,0,0-1.968,2.92c-.031.063-.064.121-.1.185s-.051.115-.079.174a13.385,13.385,0,0,0-.73,9.3c.036.134.078.272.119.409.68-.119,1.362-.255,2.042-.435a23.373,23.373,0,0,0,17.135-25.309C507.351,215.835,502.785,218.943,498.608,220.1Z" transform="translate(-461.511 -187.282)" fill="url(#linear-gradient-3)"/>
          <path id="Контур_5" data-name="Контур 5" d="M460.906,184.649a22.1,22.1,0,0,0-7.719,9.548,13.967,13.967,0,0,1,10.4,9.405c.644-.411,2.622-1.973,3.952-6.279,1.606-5.2,4.657-9.044,8.613-10.715C476.153,186.608,471.143,179.467,460.906,184.649Z" transform="translate(-451.391 -180.009)" fill="url(#linear-gradient-4)"/>
          <path id="Контур_6" data-name="Контур 6" d="M479.306,233.362a13.909,13.909,0,0,1,3.661-9.419l.033-.051c-.478-.511-2.152-1.77-6.459-.788-5.309,1.211-11.168,1.071-14.594-1.52,0,0-3.679,7.91,5.926,14.184a22.1,22.1,0,0,0,12.114,1.913A13.323,13.323,0,0,1,479.306,233.362Z" transform="translate(-453.728 -191.252)" fill="url(#linear-gradient-5)"/>
          <path id="Контур_7" data-name="Контур 7" d="M504.274,191.749a13.8,13.8,0,0,1-10.336,4.683,15.128,15.128,0,0,1-3.07-.321l-.052-.012c-.2.725-.36,2.777,2.564,5.93,3.7,3.994,6.51,9.138,5.98,13.4,0,0,8.691-.769,9.32-12.224A22.1,22.1,0,0,0,504.274,191.749Z" transform="translate(-462.263 -182.611)" fill="url(#linear-gradient-6)"/>
        </g>
        <g id="Сгруппировать_23" data-name="Сгруппировать 23" transform="translate(2.988 53.45)">
          <g id="Сгруппировать_22" data-name="Сгруппировать 22">
            <g id="Сгруппировать_21" data-name="Сгруппировать 21">
              <path id="Контур_176" data-name="Контур 176" d="M454.866,254.328a11.132,11.132,0,0,1,1.833-.124,2.878,2.878,0,0,1,1.833.479,1.757,1.757,0,0,1,.641,1.388,1.914,1.914,0,0,1-.553,1.423,2.773,2.773,0,0,1-1.948.633,3.267,3.267,0,0,1-.462-.028v2.145h-1.345Zm1.345,2.722a2.079,2.079,0,0,0,.452.036c.721,0,1.166-.365,1.166-.979,0-.552-.382-.88-1.058-.88a2.332,2.332,0,0,0-.56.053Z" transform="translate(-454.866 -254.151)" fill="#1a1a1a"/>
              <path id="Контур_177" data-name="Контур 177" d="M468.109,257.162a2.859,2.859,0,0,1-2.945,3.158,2.8,2.8,0,0,1-2.819-3.052,2.9,2.9,0,0,1,2.918-3.139A2.794,2.794,0,0,1,468.109,257.162Zm-4.333.08c0,1.174.551,2,1.458,2s1.441-.872,1.441-2.037c0-1.077-.515-2-1.449-2C464.31,255.205,463.776,256.078,463.776,257.242Z" transform="translate(-457.032 -254.129)" fill="#1a1a1a"/>
              <path id="Контур_178" data-name="Контур 178" d="M476.629,260.053a3.838,3.838,0,0,1-1.54.267,2.857,2.857,0,0,1-3.139-3.006,3.056,3.056,0,0,1,3.273-3.185,3.538,3.538,0,0,1,1.476.266l-.276,1.076a2.929,2.929,0,0,0-1.139-.222,1.971,1.971,0,0,0,.01,3.941,3.394,3.394,0,0,0,1.129-.2Z" transform="translate(-459.814 -254.129)" fill="#1a1a1a"/>
              <path id="Контур_179" data-name="Контур 179" d="M481.325,258.375l-.622,1.887h-.8l2.037-6h.933l2.047,6h-.826l-.642-1.887Zm1.966-.6-.587-1.727c-.134-.391-.222-.747-.311-1.094h-.018c-.089.356-.187.72-.3,1.085l-.587,1.736Z" transform="translate(-462.118 -254.169)" fill="#1a1a1a"/>
              <path id="Контур_180" data-name="Контур 180" d="M488.727,254.924H486.9v-.658h4.439v.658h-1.833v5.338h-.781Z" transform="translate(-464.145 -254.169)" fill="#1a1a1a"/>
              <path id="Контур_181" data-name="Контур 181" d="M499.358,257.162c0,2.063-1.254,3.158-2.785,3.158a2.748,2.748,0,0,1-2.7-3.042,2.848,2.848,0,0,1,2.785-3.148A2.729,2.729,0,0,1,499.358,257.162Zm-4.652.1c0,1.281.693,2.427,1.912,2.427s1.921-1.129,1.921-2.491c0-1.192-.624-2.437-1.912-2.437S494.706,255.943,494.706,257.26Z" transform="translate(-466.166 -254.129)" fill="#1a1a1a"/>
              <path id="Контур_182" data-name="Контур 182" d="M508.622,257.628c-.046-.836-.1-1.841-.09-2.589h-.026c-.2.7-.453,1.459-.757,2.277l-1.058,2.909H506.1l-.969-2.856c-.286-.845-.525-1.619-.695-2.331h-.018c-.018.748-.062,1.752-.116,2.651l-.161,2.571h-.737l.418-6h.987l1.022,2.9c.249.739.455,1.4.605,2.02h.027c.151-.6.364-1.262.631-2.02l1.067-2.9h.987l.374,6h-.755Z" transform="translate(-468.926 -254.169)" fill="#1a1a1a"/>
            </g>
          </g>
        </g>
      </g>
    </g>
    <path id="Контур_2316" data-name="Контур 2316" d="M5.933-2.217A2.548,2.548,0,0,1,5.129-.5,2.657,2.657,0,0,1,3.315.1a2.508,2.508,0,0,1-1.4-.4,2.579,2.579,0,0,1-.94-1.121A3.992,3.992,0,0,1,.64-3.076V-4a4.029,4.029,0,0,1,.332-1.68,2.554,2.554,0,0,1,.955-1.13,2.6,2.6,0,0,1,1.433-.4,2.539,2.539,0,0,1,1.8.618,2.587,2.587,0,0,1,.769,1.707H5.327A1.81,1.81,0,0,0,3.359-6.694a1.865,1.865,0,0,0-1.541.723,3.132,3.132,0,0,0-.574,2v.869A3.155,3.155,0,0,0,1.8-1.143,1.8,1.8,0,0,0,3.315-.41,2,2,0,0,0,4.736-.862a2.165,2.165,0,0,0,.591-1.355Zm4.795-3.066h.586V0h-.586V-4.341L7.876,0H7.295V-5.283h.581V-.937ZM14.829-.4A1.543,1.543,0,0,0,15.852-.74a1.211,1.211,0,0,0,.447-.891h.562a1.654,1.654,0,0,1-.3.881,1.9,1.9,0,0,1-.74.623A2.229,2.229,0,0,1,14.829.1a2.041,2.041,0,0,1-1.648-.723,2.921,2.921,0,0,1-.608-1.943v-.176a3.3,3.3,0,0,1,.273-1.382,2.107,2.107,0,0,1,.784-.928,2.163,2.163,0,0,1,1.194-.327,2.037,2.037,0,0,1,1.433.518,1.887,1.887,0,0,1,.6,1.362H16.3a1.437,1.437,0,0,0-.447-1,1.447,1.447,0,0,0-1.028-.381,1.457,1.457,0,0,0-1.228.571,2.585,2.585,0,0,0-.437,1.6v.171A2.527,2.527,0,0,0,13.6-.962,1.467,1.467,0,0,0,14.829-.4Zm6.992-4.39H19.9V0h-.586V-4.785H17.461v-.5h4.36ZM24.434.1a2.293,2.293,0,0,1-1.218-.332,2.263,2.263,0,0,1-.847-.925,2.885,2.885,0,0,1-.3-1.331V-2.7a3.109,3.109,0,0,1,.3-1.372,2.35,2.35,0,0,1,.823-.959,2.03,2.03,0,0,1,1.143-.349,1.908,1.908,0,0,1,1.526.657,2.664,2.664,0,0,1,.564,1.794V-2.6h-3.77v.112a2.212,2.212,0,0,0,.515,1.5,1.639,1.639,0,0,0,1.3.6,1.9,1.9,0,0,0,.828-.171,1.836,1.836,0,0,0,.652-.547l.366.278A2.132,2.132,0,0,1,24.434.1Zm-.107-4.98a1.461,1.461,0,0,0-1.111.483,2.233,2.233,0,0,0-.549,1.3h3.169v-.063A1.939,1.939,0,0,0,25.4-4.4,1.347,1.347,0,0,0,24.326-4.883ZM30.479-.791l2.1-4.492H33.3V0h-.586V-4.336L30.684,0h-.415L28.2-4.434V0h-.581V-5.283h.767ZM38.2,0a2.763,2.763,0,0,1-.112-.737A2.038,2.038,0,0,1,37.3-.12,2.4,2.4,0,0,1,36.294.1a1.771,1.771,0,0,1-1.233-.425A1.384,1.384,0,0,1,34.59-1.4a1.414,1.414,0,0,1,.642-1.221,3.085,3.085,0,0,1,1.79-.449h1.06v-.6a1.157,1.157,0,0,0-.349-.891,1.443,1.443,0,0,0-1.018-.325,1.593,1.593,0,0,0-1.011.313.929.929,0,0,0-.4.752l-.586,0A1.359,1.359,0,0,1,35.3-4.919a2.256,2.256,0,0,1,1.44-.461,2.058,2.058,0,0,1,1.394.442,1.586,1.586,0,0,1,.525,1.233v2.5a3.1,3.1,0,0,0,.161,1.147V0ZM36.362-.42A1.962,1.962,0,0,0,37.41-.7a1.666,1.666,0,0,0,.671-.757V-2.622H37.036a2.618,2.618,0,0,0-1.367.32.96.96,0,0,0-.493.852.945.945,0,0,0,.33.737A1.242,1.242,0,0,0,36.362-.42ZM46.709,0h-.586V-4.78H43.276V0H42.69V-5.283h4.019Zm1.24-2.72a3.109,3.109,0,0,1,.3-1.372,2.252,2.252,0,0,1,.835-.95A2.249,2.249,0,0,1,50.3-5.381a2.173,2.173,0,0,1,1.709.74,2.851,2.851,0,0,1,.654,1.96v.122a3.136,3.136,0,0,1-.3,1.379,2.206,2.206,0,0,1-.833.945A2.283,2.283,0,0,1,50.313.1a2.175,2.175,0,0,1-1.707-.74,2.844,2.844,0,0,1-.657-1.96Zm.586.161A2.4,2.4,0,0,0,49.026-1,1.574,1.574,0,0,0,50.313-.4,1.569,1.569,0,0,0,51.594-1a2.476,2.476,0,0,0,.491-1.6V-2.72a2.688,2.688,0,0,0-.225-1.108,1.8,1.8,0,0,0-.63-.779,1.609,1.609,0,0,0-.928-.276,1.561,1.561,0,0,0-1.274.613,2.48,2.48,0,0,0-.493,1.6ZM53.4-.493l.259-.337a4.538,4.538,0,0,0,.708-2.441l.093-2.012h3.12v4.79h.547V1.553h-.581V0h-3.97V1.553h-.562l0-2.046Zm.674,0h2.92V-4.736H55.015l-.063,1.372A4.866,4.866,0,0,1,54.072-.493Zm5.156,0,.259-.337A4.538,4.538,0,0,0,60.2-3.271l.093-2.012h3.12v4.79h.547V1.553h-.581V0H59.4V1.553h-.562l0-2.046Zm.674,0h2.92V-4.736H60.845l-.063,1.372A4.866,4.866,0,0,1,59.9-.493ZM67.129.1a2.293,2.293,0,0,1-1.218-.332,2.263,2.263,0,0,1-.847-.925,2.885,2.885,0,0,1-.3-1.331V-2.7a3.109,3.109,0,0,1,.3-1.372,2.35,2.35,0,0,1,.823-.959,2.03,2.03,0,0,1,1.143-.349,1.908,1.908,0,0,1,1.526.657,2.664,2.664,0,0,1,.564,1.794V-2.6h-3.77v.112a2.212,2.212,0,0,0,.515,1.5,1.639,1.639,0,0,0,1.3.6,1.9,1.9,0,0,0,.828-.171,1.836,1.836,0,0,0,.652-.547L69-.835A2.132,2.132,0,0,1,67.129.1Zm-.107-4.98a1.461,1.461,0,0,0-1.111.483,2.233,2.233,0,0,0-.549,1.3H68.53v-.063A1.939,1.939,0,0,0,68.1-4.4,1.347,1.347,0,0,0,67.021-4.883ZM74.5-2.588a3.182,3.182,0,0,1-.547,1.96A1.742,1.742,0,0,1,72.485.1a1.956,1.956,0,0,1-1.66-.762v2.7h-.581V-5.283h.542l.029.747a1.875,1.875,0,0,1,1.655-.845,1.757,1.757,0,0,1,1.487.718,3.252,3.252,0,0,1,.54,1.992Zm-.586-.1a2.717,2.717,0,0,0-.415-1.6,1.338,1.338,0,0,0-1.157-.586,1.617,1.617,0,0,0-.923.259,1.628,1.628,0,0,0-.591.752v2.534a1.551,1.551,0,0,0,.6.693,1.732,1.732,0,0,0,.923.239A1.326,1.326,0,0,0,73.5-.984,2.959,2.959,0,0,0,73.911-2.69Zm5.845.249h-.7V0h-.586V-2.441h-.7L75.815,0h-.742l2.188-2.71L75.317-5.283h.708l1.733,2.319h.708V-5.283h.586v2.319h.713L81.5-5.283h.718L80.264-2.71,82.456,0h-.747Zm5.068.02h-.811V0h-.591V-5.283h.591v2.344h.8l1.938-2.344h.737L85.322-2.72,87.729,0h-.771Zm7.217-2.861h.586V0h-.586V-4.341L89.189,0h-.581V-5.283h.581V-.937ZM4.053,7.22H1.382V12H.8V6.717H4.053Zm.5,2.061a3.109,3.109,0,0,1,.3-1.372A2.219,2.219,0,0,1,6.909,6.619a2.173,2.173,0,0,1,1.709.74,2.851,2.851,0,0,1,.654,1.96v.122a3.136,3.136,0,0,1-.3,1.379,2.206,2.206,0,0,1-.833.945,2.283,2.283,0,0,1-1.226.332,2.175,2.175,0,0,1-1.707-.74A2.844,2.844,0,0,1,4.556,9.4Zm.586.161A2.4,2.4,0,0,0,5.632,11a1.574,1.574,0,0,0,1.287.608A1.569,1.569,0,0,0,8.2,11a2.476,2.476,0,0,0,.491-1.6V9.28a2.688,2.688,0,0,0-.225-1.108,1.8,1.8,0,0,0-.63-.779,1.609,1.609,0,0,0-.928-.276,1.561,1.561,0,0,0-1.274.613,2.48,2.48,0,0,0-.493,1.6Zm7.29,2.163a1.543,1.543,0,0,0,1.023-.344,1.211,1.211,0,0,0,.447-.891h.562a1.654,1.654,0,0,1-.3.881,1.9,1.9,0,0,1-.74.623,2.229,2.229,0,0,1-.989.225,2.041,2.041,0,0,1-1.648-.723,2.921,2.921,0,0,1-.608-1.943V9.256a3.3,3.3,0,0,1,.273-1.382,2.107,2.107,0,0,1,.784-.928,2.163,2.163,0,0,1,1.194-.327,2.037,2.037,0,0,1,1.433.518,1.887,1.887,0,0,1,.6,1.362H13.9a1.414,1.414,0,0,0-1.475-1.382,1.457,1.457,0,0,0-1.228.571,2.585,2.585,0,0,0-.437,1.6v.171a2.527,2.527,0,0,0,.437,1.577A1.467,1.467,0,0,0,12.432,11.6ZM17.3,11.16l1.543-4.443h.63L17.222,12.9l-.117.273a1.419,1.419,0,0,1-1.343.962,1.639,1.639,0,0,1-.449-.068l0-.483.3.029a1.082,1.082,0,0,0,.7-.212,1.612,1.612,0,0,0,.452-.73l.259-.713L15.024,6.717h.64Zm2.681.347.259-.337a4.538,4.538,0,0,0,.708-2.441l.093-2.012h3.12v4.79h.547v2.046h-.581V12h-3.97v1.553H19.6l0-2.046Zm.674,0h2.92V7.264H21.6l-.063,1.372A4.866,4.866,0,0,1,20.659,11.507ZM29.175,12a2.763,2.763,0,0,1-.112-.737,2.038,2.038,0,0,1-.784.618,2.4,2.4,0,0,1-1.008.217,1.771,1.771,0,0,1-1.233-.425,1.384,1.384,0,0,1-.471-1.074,1.414,1.414,0,0,1,.642-1.221A3.085,3.085,0,0,1,28,8.929h1.06v-.6a1.157,1.157,0,0,0-.349-.891,1.443,1.443,0,0,0-1.018-.325,1.593,1.593,0,0,0-1.011.313.929.929,0,0,0-.4.752l-.586,0a1.359,1.359,0,0,1,.586-1.091,2.256,2.256,0,0,1,1.44-.461,2.058,2.058,0,0,1,1.394.442,1.586,1.586,0,0,1,.525,1.233v2.5a3.1,3.1,0,0,0,.161,1.147V12Zm-1.836-.42a1.962,1.962,0,0,0,1.047-.283,1.666,1.666,0,0,0,.671-.757V9.378H28.013a2.618,2.618,0,0,0-1.367.32.96.96,0,0,0-.493.852.945.945,0,0,0,.33.737A1.242,1.242,0,0,0,27.339,11.58Zm8.105-2.168a3.182,3.182,0,0,1-.547,1.96,1.742,1.742,0,0,1-1.465.725,1.956,1.956,0,0,1-1.66-.762v2.7h-.581V6.717h.542l.029.747a1.875,1.875,0,0,1,1.655-.845,1.757,1.757,0,0,1,1.487.718,3.252,3.252,0,0,1,.54,1.992Zm-.586-.1a2.717,2.717,0,0,0-.415-1.6,1.338,1.338,0,0,0-1.157-.586,1.542,1.542,0,0,0-1.514,1.011v2.534a1.551,1.551,0,0,0,.6.693,1.732,1.732,0,0,0,.923.239,1.326,1.326,0,0,0,1.15-.588A2.959,2.959,0,0,0,34.858,9.31ZM38.691,11.6a1.543,1.543,0,0,0,1.023-.344,1.211,1.211,0,0,0,.447-.891h.562a1.654,1.654,0,0,1-.3.881,1.9,1.9,0,0,1-.74.623,2.229,2.229,0,0,1-.989.225,2.041,2.041,0,0,1-1.648-.723,2.921,2.921,0,0,1-.608-1.943V9.256a3.3,3.3,0,0,1,.273-1.382,2.107,2.107,0,0,1,.784-.928,2.163,2.163,0,0,1,1.194-.327,2.037,2.037,0,0,1,1.433.518,1.887,1.887,0,0,1,.6,1.362h-.562a1.414,1.414,0,0,0-1.475-1.382,1.457,1.457,0,0,0-1.228.571,2.585,2.585,0,0,0-.437,1.6v.171a2.527,2.527,0,0,0,.437,1.577A1.467,1.467,0,0,0,38.691,11.6Zm6.992-4.39H43.76V12h-.586V7.215H41.323v-.5h4.36ZM46.7,12V6.717h1.938a2.773,2.773,0,0,1,1.543.359,1.185,1.185,0,0,1,.537,1.052,1.124,1.124,0,0,1-.239.706,1.355,1.355,0,0,1-.7.452,1.451,1.451,0,0,1,.833.444,1.161,1.161,0,0,1,.315.806,1.269,1.269,0,0,1-.515,1.082A2.4,2.4,0,0,1,48.96,12Zm.581-2.432v1.943h1.694A1.734,1.734,0,0,0,50,11.258a.844.844,0,0,0,.356-.732.819.819,0,0,0-.356-.7,1.709,1.709,0,0,0-1.016-.259Zm0-.488h1.479q1.377-.02,1.377-.937a.758.758,0,0,0-.378-.706,2.255,2.255,0,0,0-1.121-.222H47.285ZM54.277,12.1a2.293,2.293,0,0,1-1.218-.332,2.263,2.263,0,0,1-.847-.925,2.885,2.885,0,0,1-.3-1.331V9.3a3.109,3.109,0,0,1,.3-1.372,2.35,2.35,0,0,1,.823-.959,2.03,2.03,0,0,1,1.143-.349,1.908,1.908,0,0,1,1.526.657A2.664,2.664,0,0,1,56.26,9.07V9.4H52.49V9.51a2.212,2.212,0,0,0,.515,1.5,1.639,1.639,0,0,0,1.3.6,1.9,1.9,0,0,0,.828-.171,1.836,1.836,0,0,0,.652-.547l.366.278A2.132,2.132,0,0,1,54.277,12.1Zm-.107-4.98a1.461,1.461,0,0,0-1.111.483,2.233,2.233,0,0,0-.549,1.3h3.169V8.836a1.939,1.939,0,0,0-.435-1.24A1.347,1.347,0,0,0,54.17,7.117ZM61.455,12h-.586V9.578H58.022V12h-.586V6.717h.586V9.085h2.847V6.717h.586Zm5.62,0h-.586V9.578H63.643V12h-.586V6.717h.586V9.085h2.847V6.717h.586Zm2.207-3.364h1.523a2.347,2.347,0,0,1,1.028.212,1.531,1.531,0,0,1,.669.588,1.658,1.658,0,0,1,.227.874,1.554,1.554,0,0,1-.525,1.228A2.072,2.072,0,0,1,70.786,12H68.7V6.717h.581Zm0,.5v2.373H70.8a1.441,1.441,0,0,0,.989-.317,1.223,1.223,0,0,0,.01-1.721,1.381,1.381,0,0,0-.955-.334ZM74.521,12h-.586V6.717h.586Zm3.286-3.14,1.426-2.144h.693L78.135,9.31,80,12h-.688l-1.5-2.236L76.309,12H75.62l1.865-2.69L75.693,6.717h.688Zm7.31,2.3L86.66,6.717h.63L85.034,12.9l-.117.273a1.419,1.419,0,0,1-1.343.962,1.639,1.639,0,0,1-.449-.068l0-.483.3.029a1.082,1.082,0,0,0,.7-.212,1.612,1.612,0,0,0,.452-.73l.259-.713L82.837,6.717h.64Zm4.966.444a1.543,1.543,0,0,0,1.023-.344,1.211,1.211,0,0,0,.447-.891h.562a1.654,1.654,0,0,1-.3.881,1.9,1.9,0,0,1-.74.623,2.229,2.229,0,0,1-.989.225,2.041,2.041,0,0,1-1.648-.723,2.921,2.921,0,0,1-.608-1.943V9.256A3.3,3.3,0,0,1,88.1,7.874a2.107,2.107,0,0,1,.784-.928,2.163,2.163,0,0,1,1.194-.327,2.037,2.037,0,0,1,1.433.518,1.887,1.887,0,0,1,.6,1.362h-.562a1.414,1.414,0,0,0-1.475-1.382,1.457,1.457,0,0,0-1.228.571,2.585,2.585,0,0,0-.437,1.6v.171a2.527,2.527,0,0,0,.437,1.577A1.467,1.467,0,0,0,90.083,11.6Zm7.261-4.888V12h-.586V7.22H94.595L94.5,9.2a8.291,8.291,0,0,1-.22,1.677,1.692,1.692,0,0,1-.479.852,1.249,1.249,0,0,1-.845.273h-.225v-.518l.181-.01a.764.764,0,0,0,.723-.488,5.279,5.279,0,0,0,.288-1.709l.107-2.559Zm3.242,4.443,1.543-4.443h.63L100.5,12.9l-.117.273a1.419,1.419,0,0,1-1.343.962,1.639,1.639,0,0,1-.449-.068l0-.483.3.029a1.082,1.082,0,0,0,.7-.212,1.612,1.612,0,0,0,.452-.73l.259-.713L98.306,6.717h.64Zm6.367-3.94h-2.671V12H103.7V6.717h3.257Z" transform="translate(73 146)" fill="#21262c"/>
    <path id="Контур_2315" data-name="Контур 2315" d="M0,60V0" transform="translate(66.5 99.5)" fill="none" stroke="#707070" stroke-width="0.5"/>
    <path id="Контур_2313" data-name="Контур 2313" d="M-22.221-8.052A8.553,8.553,0,0,1-25.1-1.909,10.116,10.116,0,0,1-31.95.332,9.1,9.1,0,0,1-39.263-2.8q-2.665-3.129-2.665-8.591v-1.478A14.49,14.49,0,0,1-40.7-19.009a9.206,9.206,0,0,1,3.511-4.076,9.836,9.836,0,0,1,5.3-1.419,9.854,9.854,0,0,1,6.74,2.241,9.192,9.192,0,0,1,2.955,6.292h-4.98a5.048,5.048,0,0,0-1.3-3.4,4.826,4.826,0,0,0-3.412-1.054,4.232,4.232,0,0,0-3.727,1.785A10,10,0,0,0-36.88-13.1v1.826q0,3.918,1.187,5.728a4.153,4.153,0,0,0,3.744,1.81A4.917,4.917,0,0,0-28.5-4.79a4.762,4.762,0,0,0,1.3-3.262ZM.739,0h-5V-20.138h-9.679V0h-4.98V-24.172H.739ZM20.959-20.138H10.119V0H5.138V-24.172H20.959ZM33.112-12.75l4.4-11.422H42.89L34.44-4.233l-.681,1.312A6.185,6.185,0,0,1,28.015.349L26.272.282l-.05-4a8.835,8.835,0,0,0,1.295.066A3.382,3.382,0,0,0,29.2-4.018a2.752,2.752,0,0,0,1.071-1.345l.614-1.577L22.4-24.172h5.362Z" transform="translate(117 128)" fill="#21262c"/>
  </g>
</svg>
