<svg id="Лого_АИС_ГСН_fin" data-name="Лого_АИС ГСН_fin" xmlns="http://www.w3.org/2000/svg" width="191.307" height="40.4" viewBox="0 0 191.307 40.4">
  <g id="Сгруппировать_188" data-name="Сгруппировать 188">
    <path id="Контур_21" data-name="Контур 21" d="M126.587,70.191V52.2L112.7,70.191Z" transform="translate(-68.237 -31.606)" fill="#fff"/>
    <path id="Контур_22" data-name="Контур 22" d="M116,23.448,130.085,5.3H116Z" transform="translate(-70.235 -3.209)" fill="#fff"/>
    <path id="Контур_23" data-name="Контур 23" d="M15.071,5.3,0,41.794H11.56L14.2,34.969H26.078l2.6,6.825H40.715L25.763,5.3Zm2.407,21.265,2.722-8.64,2.643,8.64H17.478Z" transform="translate(0 -3.209)" fill="#fff"/>
    <path id="Контур_24" data-name="Контур 24" d="M184.884,13.493a10.3,10.3,0,0,1,7.338-2.722,19.436,19.436,0,0,1,9.469,2.564V2.052A21.5,21.5,0,0,0,191.867,0c-6.391,0-11.717,1.894-15.86,5.642-.316.276-.631.592-.907.868v27.3c.316.316.631.631.986.947,4.182,3.748,9.508,5.642,15.9,5.642a23.282,23.282,0,0,0,9.705-1.815V27.222a16.5,16.5,0,0,1-9.035,2.407,11.451,11.451,0,0,1-7.654-2.6,8.694,8.694,0,0,1-3-6.825A8.663,8.663,0,0,1,184.884,13.493Z" transform="translate(-106.018)" fill="#fff"/>
  </g>
  <g id="Сгруппировать_189" data-name="Сгруппировать 189" transform="translate(106.444 2.052)">
    <path id="Контур_25" data-name="Контур 25" d="M391.319,5.2V18.535H378.379V5.2H367.687V16.484a19.436,19.436,0,0,0-9.469-2.564,10.3,10.3,0,0,0-7.338,2.722A8.663,8.663,0,0,0,348,23.348a8.693,8.693,0,0,0,3,6.825,11.451,11.451,0,0,0,7.654,2.6,16.5,16.5,0,0,0,9.035-2.407V41.733h10.692v-13.3h12.941v13.3h10.692V5.2Z" transform="translate(-317.148 -5.2)" fill="#ff6100" fill-rule="evenodd"/>
    <path id="Контур_26" data-name="Контур 26" d="M294.695,37.967a18.744,18.744,0,0,1-6.312-14.6,18.692,18.692,0,0,1,6.273-14.519A21.355,21.355,0,0,1,300.06,5.3l-12.7.039v8.206H269.8V41.754l30.971.039A21.665,21.665,0,0,1,294.695,37.967Z" transform="translate(-269.8 -5.261)" fill="#ff6100" fill-rule="evenodd"/>
  </g>
</svg>
